<svg width="40" height="40" viewBox="0 0 40 40" fill="none" xmlns="http://www.w3.org/2000/svg">
  <!-- Rounded background -->
  <path d="M0 16C0 10.3995 0 7.59921 1.08993 5.46009C2.04867 3.57847 3.57847 2.04867 5.46009 1.08993C7.59921 0 10.3995 0 16 0H24C29.6005 0 32.4008 0 34.5399 1.08993C36.4215 2.04867 37.9513 3.57847 38.9101 5.46009C40 7.59921 40 10.3995 40 16V24C40 29.6005 40 32.4008 38.9101 34.5399C37.9513 36.4215 36.4215 37.9513 34.5399 38.9101C32.4008 40 29.6005 40 24 40H16C10.3995 40 7.59921 40 5.46009 38.9101C3.57847 37.9513 2.04867 36.4215 1.08993 34.5399C0 32.4008 0 29.6005 0 24V16Z" fill="#1E293B"/>
  <!-- Border -->
  <path d="M0.25 16C0.25 13.1956 0.250194 11.1074 0.385412 9.45238C0.52039 7.80032 0.788669 6.60203 1.31269 5.57359C2.24745 3.73901 3.73901 2.24745 5.57359 1.31269C6.60203 0.788669 7.80032 0.52039 9.45238 0.385412C11.1074 0.250194 13.1956 0.25 16 0.25H24C26.8044 0.25 28.8926 0.250194 30.5476 0.385412C32.1997 0.52039 33.398 0.788669 34.4264 1.31269C36.261 2.24745 37.7525 3.73901 38.6873 5.57359C39.2113 6.60203 39.4796 7.80032 39.6146 9.45238C39.7498 11.1074 39.75 13.1956 39.75 16V24C39.75 26.8044 39.7498 28.8926 39.6146 30.5476C39.4796 32.1997 39.2113 33.398 38.6873 34.4264C37.7525 36.261 36.261 37.7525 34.4264 38.6873C33.398 39.2113 32.1997 39.4796 30.5476 39.6146C28.8926 39.7498 26.8044 39.75 24 39.75H16C13.1956 39.75 11.1074 39.7498 9.45238 39.6146C7.80032 39.4796 6.60203 39.2113 5.57359 38.6873C3.73901 37.7525 2.24745 36.261 1.31269 34.4264C0.788669 33.398 0.52039 32.1997 0.385412 30.5476C0.250194 28.8926 0.25 26.8044 0.25 24V16Z" stroke="white" stroke-opacity="0.12" stroke-width="0.5"/>
  <!-- Neural network / strategy nodes -->
  <circle cx="12" cy="13" r="2.5" fill="#3B82F6"/>
  <circle cx="12" cy="27" r="2.5" fill="#3B82F6"/>
  <circle cx="20" cy="20" r="3" fill="#60A5FA"/>
  <circle cx="28" cy="13" r="2.5" fill="#3B82F6"/>
  <circle cx="28" cy="27" r="2.5" fill="#3B82F6"/>
  <!-- Connections -->
  <line x1="14.2" y1="14" x2="17.5" y2="18.5" stroke="#60A5FA" stroke-width="1.2" stroke-opacity="0.6"/>
  <line x1="14.2" y1="26" x2="17.5" y2="21.5" stroke="#60A5FA" stroke-width="1.2" stroke-opacity="0.6"/>
  <line x1="22.5" y1="18.5" x2="25.8" y2="14" stroke="#60A5FA" stroke-width="1.2" stroke-opacity="0.6"/>
  <line x1="22.5" y1="21.5" x2="25.8" y2="26" stroke="#60A5FA" stroke-width="1.2" stroke-opacity="0.6"/>
  <!-- "JS" text -->
  <text x="20" y="36" text-anchor="middle" font-family="system-ui, -apple-system, sans-serif" font-size="5" font-weight="700" fill="#94A3B8" letter-spacing="0.5">JS</text>
</svg>
